<?xml version="1.0" encoding="UTF-8"?>
<svg id="svg6600" xmlns="http://www.w3.org/2000/svg" viewBox="0 0 512 356">
  <defs>
    <style>
      .cls-1 {
        fill: #e3a756;
      }

      .cls-2 {
        fill: #e0a94c;
      }

      .cls-3 {
        fill: #1e100a;
      }

      .cls-4 {
        fill: #882b7a;
      }
    </style>
  </defs>
  <rect class="cls-4" width="512" height="356"/>
  <g id="l2txtZAOQC1doniW5OaAjoe">
    <g id="g20295">
      <path id="p10Cc5ZsHX" class="cls-3" d="M47,295.23c-18.19-1.39-40.85-4.83-42.43-6.47-.54-.54,0-3.44,2.24-11.6,1.57-5.98,11.91-44.72,22.91-86.12,11.06-41.4,20.43-76.09,20.85-77.12.73-1.81,1.09-1.93,9.73-4.11,34.27-8.4,67.99-10.46,91.68-5.5,14.08,2.9,28.16,10.21,34.45,17.95,5.44,6.65,8.88,15.23,8.88,22.18,0,8.1-3.87,19.76-8.52,25.62-3.63,4.53-11.18,11.3-17.89,16.02-2.78,1.87-5.02,3.63-5.02,3.87,0,.18,1.75,1.63,3.93,3.2,9.85,7.01,14.69,17.89,14.02,31.73-1.09,22.36-19.04,45.63-45.75,59.23-9.97,5.08-30.22,10.52-42.85,11.48-10.88.79-32.88.66-46.23-.36ZM101.33,260.79c5.38-1.21,13.48-4.23,17.16-6.47,4.35-2.54,9.79-7.61,12.03-11.18,1.93-3.02,3.81-8.4,4.96-14.26,1.21-5.86-.85-11.06-5.38-13.9-4.17-2.66-8.64-3.87-16.62-4.53-8.28-.73-33.12-.91-38.2-.3l-3.08.36-1.03,4.05c-.54,2.18-1.51,5.92-2.12,8.22-.6,2.36-1.87,6.95-2.78,10.27-.85,3.32-1.99,7.55-2.48,9.37-2.66,9.79-3.87,14.81-3.87,16.32s.24,1.75,2.6,2.18c8.88,1.51,31.85,1.45,38.8-.12ZM123.21,177.81c12.75-3.14,19.34-9.55,21.7-20.79,2.42-11.36-4.29-18.8-19.1-21.33-9.19-1.57-25.02-.48-31.91,2.24-.79.3-1.81,1.57-2.3,2.78-.91,2.05-9.55,33.97-10.03,36.75-.18,1.03.24,1.27,3.14,1.63,1.81.18,10.15.3,18.43.18,12.75-.18,15.89-.42,20.06-1.45Z"/>
      <path id="pGdFj5SJ8" class="cls-3" d="M204.07,292.76c-9.97-.12-18.43-.3-18.86-.42-.79-.36-.36-2.05,13.18-52.64,13.66-51.01,22.66-84.13,24.05-88.6,1.27-4.11,1.99-4.77,4.65-4.77,1.99,0,2.36,1.21,1.51,5.26-.36,1.87-.54,3.51-.42,3.69.18.12,8.64.48,18.92.79,10.21.3,19.64.85,20.85,1.21,2.66.66,4.71,3.26,4.71,5.92,0,1.69-6.47,26.05-28.83,108.24-2.84,10.46-5.38,19.64-5.68,20.43-.48,1.27-.73,1.33-8.22,1.21-4.29-.12-15.89-.24-25.87-.3ZM203.34,282.72c.85-3.57.36-4.05-3.75-4.05-3.08,0-3.75.18-4.53,1.33-1.33,1.87-1.27,4.53.12,4.9.54.18,2.54.24,4.35.24q3.26-.12,3.81-2.42ZM216.04,284.96c2.54-.36,2.84-.6,3.51-2.48,1.09-3.26.54-3.81-3.99-3.81q-3.99,0-4.9,2.12c-1.15,2.72-1.09,3.81.24,4.11,1.63.42,2.18.42,5.14.06ZM234.77,284.17c.24-.24.48-1.51.6-2.84l.12-2.36-3.63-.18c-1.99-.06-3.99.12-4.41.36-.91.6-2.05,4.9-1.51,5.74.36.54,8.04-.06,8.82-.73ZM206.24,270.76c.85-.85,1.15-1.81,1.03-3.14-.18-1.87-.24-1.93-3.63-2.12-4.17-.24-5.92,1.09-5.92,4.41v2.12h3.63c2.84,0,3.87-.24,4.9-1.27ZM222.74,269.37c1.15-2.3,1.15-2.36,0-3.2-1.39-1.03-6.71-.66-7.86.54-.42.42-.91,1.63-1.15,2.72-.42,2.24.18,2.54,4.83,2.42,2.9-.12,3.08-.24,4.17-2.48ZM237.73,271.3c.54-.42,1.15-1.69,1.39-2.72.36-1.75.24-2.05-1.21-2.6-4.17-1.57-7.86-.12-8.52,3.44-.36,1.75-.24,1.93,1.33,2.18,3.57.54,6.1.42,7.01-.3ZM210.29,257.34c.97-2.72.91-3.87-.24-4.29-1.33-.48-6.47-.42-7.25.12-.85.48-2.12,4.96-1.69,5.68.18.24,2.18.48,4.41.48q4.05,0,4.77-1.99ZM226.01,257.34c1.45-4.05.91-4.65-4.41-4.65-3.08,0-3.26.06-3.87,1.87-1.39,4.05-.91,4.53,4.77,4.71,2.6.06,2.84-.06,3.51-1.93ZM242.45,256.25c.85-3.14.36-3.57-4.35-3.57-3.26,0-3.57.12-4.41,1.81-.48.97-.91,2.3-.91,3.02,0,1.09.36,1.21,4.53,1.21h4.47l.66-2.48ZM213.62,244.71c.54-.42,1.21-1.69,1.39-2.72.36-1.75.18-2.05-1.21-2.6-2.12-.79-4.96-.79-6.41,0-1.21.66-2.72,4.47-2.12,5.44.54.85,7.13.73,8.34-.12ZM230,244.11c.54-.73.97-2.12.97-3.02,0-2.05-1.69-2.66-5.74-2.05-3.02.48-3.93,1.57-3.93,4.53v1.87h3.87c3.38,0,4.05-.18,4.83-1.33ZM245.77,244.47c.6-.66.91-1.75.79-3.2l-.18-2.18-3.38-.18c-3.08-.18-3.57,0-4.71,1.45-.73.91-1.27,2.42-1.27,3.32q0,1.75,3.87,1.75c2.78,0,4.17-.3,4.9-.97ZM235.8,223.62c.85-3.2.36-3.57-4.65-3.57h-3.75l-.6,2.3q-1.09,3.75,3.87,3.75h4.47l.66-2.48Z"/>
      <path id="pZA4WBB5N" class="cls-3" d="M266.26,291.55c.18-.6,1.69-6.53,3.38-13.18s5.26-20.13,7.86-29.92,7.37-27.86,10.58-40.19c7.43-28.53,10.4-38.92,11.54-40.67,3.14-4.77,32.88-11.97,57.96-14.08,14.44-1.21,38.74.18,40.85,2.3.42.42.06,2.72-1.27,7.8-3.63,13.78-5.56,20.49-6.04,20.97-.24.3-3.02-.06-6.22-.73-3.14-.66-9.43-1.51-14.02-1.87-6.89-.54-9.19-.48-13.78.3-8.34,1.45-17.77,4.9-19.64,7.07-.73.91-5.62,18.55-16.68,60.32-3.81,14.44-7.92,30.04-9.19,34.63l-2.24,8.28h-21.7c-20.43,0-21.7-.06-21.39-1.03Z"/>
      <path id="pEolOFqKi" class="cls-3" d="M377.22,292.15c0-.24,2.9-11.3,6.41-24.66,29.31-110.72,26.35-100.2,28.22-101.41,6.16-4.05,32.21-10.09,53-12.27,15.05-1.57,42.37-.42,44.72,1.93.6.6-6.22,27.8-7.19,28.83-.24.24-3.32-.12-6.77-.85-5.2-1.15-8.34-1.39-18.07-1.39-11.36-.06-11.97,0-16.92,1.63-7.37,2.42-11.66,4.65-12.57,6.53-.36.91-6.71,23.99-14.02,51.37-7.25,27.32-13.6,49.92-14.02,50.22-.97.6-42.79.66-42.79.06Z"/>
      <path id="pmzRZFoxR" class="cls-3" d="M73.65,85.22c-5.44-1.27-9.67-4.71-12.03-9.91-2.12-4.59-1.99-13.36.3-19.94,2.12-6.16,4.41-10.15,8.28-14.38,7.92-8.7,21.7-13.48,32.76-11.36,4.77.91,11.24,2.96,11.72,3.75.42.79-1.45,8.64-2.36,9.85-.66.79-1.39.6-5.74-1.15-6.22-2.54-10.82-3.51-13.84-2.96-8.64,1.57-16.62,10.4-18.31,20.43-1.27,7.01,0,11.6,3.93,14.63,3.87,2.9,9.55,2.6,20.67-1.15,3.08-1.03,5.74-1.69,5.92-1.57.42.48-2.66,9.97-3.51,10.64-3.44,2.78-20.97,4.77-27.8,3.14Z"/>
      <path id="pFTdMBQjl" class="cls-3" d="M117.34,85.28c-1.51-.3-3.63-.73-4.65-.91-1.33-.24-1.99-.73-1.99-1.39,0-1.15,9.37-36.5,11.91-44.9,1.15-4.05,1.87-5.38,2.9-5.86,5.26-2.42,20.97-3.51,27.56-1.93,8.28,1.93,12.63,5.98,12.63,11.79,0,3.26-1.03,5.2-5.02,9.19l-3.69,3.81,1.57,1.63c3.93,4.23,4.41,8.22,1.81,13.78-2.3,4.77-4.47,7.25-8.82,10.09-6.04,3.87-10.03,4.83-21.52,5.08-5.5.12-11.18-.06-12.69-.36ZM137.29,76.15c7.01-1.15,11.91-5.8,11.36-10.88-.36-3.51-2.42-4.35-11.06-4.65l-7.55-.24-.66,1.69c-1.09,2.84-2.96,10.7-2.96,12.45,0,1.21.36,1.69,1.39,1.87,2.54.48,5.56.42,9.49-.24ZM147.2,50.83c4.41-2.12,6.04-7.49,3.14-10.21-1.21-1.09-2.42-1.45-6.29-1.69-6.53-.48-7.86-.06-9,2.72-1.33,3.2-2.72,8.7-2.36,9.55.73,1.87,10.46,1.63,14.5-.36Z"/>
      <path id="pk7mNKdKm" class="cls-3" d="M165.09,83.77c0-1.33,9.85-38.98,12.75-48.77l1.15-3.99,4.71-.24c7.13-.42,37.47-.24,37.83.18.24.18-.12,2.3-.66,4.71l-1.09,4.29-12.69.06c-6.95,0-13.78.18-15.05.42-2.36.42-2.42.48-3.51,4.65-1.81,7.13-2.72,6.59,11.72,6.95,6.83.18,12.63.48,12.87.73.24.18-.12,2.24-.79,4.53l-1.15,4.11-13.36.18-13.36.12-1.57,4.9c-.85,2.66-1.51,5.62-1.51,6.65v1.75l11.36.06c10.76,0,17.04.3,17.53.85.12.12-.06,1.69-.48,3.44-1.39,5.86.97,5.32-23.27,5.32-18.86,0-21.45-.12-21.45-.91Z"/>
    </g>
  </g>
  <path id="p10XxLMKWx" class="cls-2" d="M268.8,152.24c-3.2-4.53-19.34-29.43-20.31-31.37-1.63-3.08-1.51-3.87.73-7.8,4.65-8.22,12.99-13.48,27.08-17.22,26.47-7.07,31.79-9.19,37.77-15.11,2.05-1.99,4.71-5.32,5.98-7.37,1.27-2.12,2.6-3.63,2.9-3.44.54.36,9.25,13.24,17.28,25.75,2.78,4.23,4.96,8.28,4.96,9.13,0,2.3-5.56,10.27-9.13,13.11-6.16,4.9-11.54,7.01-29.55,11.6-6.47,1.63-13.36,3.63-15.29,4.41-8.28,3.32-15.17,9-19.28,15.96l-2.18,3.75-.97-1.39Z"/>
  <path id="p1FJPwFWrP" class="cls-1" d="M297.36,327.21c-3.2-1.58-4.17-2.57-4.32-12.07l-.1-7.71h2.04c1.24,0,2.19.25,2.29.65.1.3.15,3.83.1,7.81-.1,8.1.3,9.45,2.69,9.45,3.03,0,3.63-1.89,3.53-10.94l-.1-6.71h3.88l.15,3.38.15,3.33h6.91v1.89c0,1.64-.2,1.94-1.49,2.44-1.54.6-1.99.3-2.64-1.44-.2-.55-.85-.9-1.59-.9-1.19,0-1.24.15-1.24,2.88,0,4.08-1.09,6.02-4.48,7.66-2.37,1.17-3.67.83-5.77.28h0Z"/>
  <path id="pOGmmwzm" class="cls-1" d="M388.76,330.01c-1.99-1.34-1.09-3.68,1.39-3.68s3.28,2.09,1.59,3.63c-1.14,1.04-1.59,1.04-2.98.05h0Z"/>
  <path id="p3pu6iPjt" class="cls-1" d="M210.53,327.66c-.06-.36-.28-3.77-.33-7.9-.1-7.86-.45-9.3-2.49-9.85-.6-.15-1.54.15-2.29.7-1.14.94-1.24,1.29-1.34,6.81l-.15,5.82h-3.98v-5.22c0-8.2,1.24-9.85,7.31-9.99,3.58-.1,4.82.45,6.17,2.73.8,1.29.94,2.64.94,8.9.05,4.57-.09,7.81-.44,8.01-1.06.11-2.47-.03-3.41-.01h0Z"/>
  <path id="pBZyK9CrT" class="cls-1" d="M219.16,327.64c-.16-1.14-.51-2.81.04-5.69.75-3.68,2.59-6.76,4.92-8.25,2.19-1.39,2.24-1.39,1.19-3.88-.45-.99-.65-2.04-.5-2.24.2-.4,3.68-.35,3.93.05.05.1.6,1.79,1.19,3.78l1.14,3.58h3.48c3.03,0,3.43.1,3.43.94,0,.55.15,1.29.3,1.74.2.5-.2.99-1.19,1.49-1.59.8-2.09.6-2.73-1.29-.2-.5-.8-.9-1.39-.9-.94,0-.99.2-.75,1.64.15.9.85,3.28,1.49,5.22.65,1.99,1.04,3.68.85,3.78-.15.1-1.14.09-2.14,0h-1.62s-1.81-5.96-1.81-5.96c-.94-3.13-1.94-5.67-2.24-5.67-.65,0-1.84,1.29-2.69,2.88-.3.65-.85,2.88-1.14,4.92-.55,3.58-.39,3.4-1.25,3.91-.75.05-2.11-.03-2.52-.05h0Z"/>
  <path id="pGAADuiMt" class="cls-1" d="M244.16,327.53l-1.54-.15.15-7.41c.15-8.01.5-9.4,2.78-11.09.99-.75,2.09-.99,4.23-.99,6.27.1,7.26,1.49,7.51,10.99.25,8.4.1,9-1.99,8.8-.9-.1-1.74-.15-1.89-.2-.15-.05-.25-3.58-.3-7.86l-.14-8.24-2.81-.81c-3.01.43-.06-.16-1.98.2-1.19,1.14-1.24,1.39-1.24,8.85,0,8.3.05,8.2-2.78,7.91h0Z"/>
  <path id="pDNurJT9U" class="cls-1" d="M270.96,327.45l-1.64-.2v-10.39h-1.24c-1.09,0-1.54.45-3.03,2.88-.05.1-2.49-.85-3.08-1.19-.1-.05,0-.9.15-1.89l.35-1.79h6.86v-4.97h-2.59c-3.18,0-3.58-.3-3.73-2.29-.1-1.24.15-1.64,1.14-2.09,1.79-.85,2.09-.75,2.93.89.75,1.39.94,1.49,3.68,1.49h2.93l-.1,2.88c-.1,1.54-.05,3.13.1,3.48.15.4,1.34.6,3.58.6h3.38l.2,1.74c.2,1.54,0,1.84-1.29,2.49-1.89.94-1.74.99-2.34-.75-.45-1.19-.85-1.49-1.94-1.49-1.79,0-2.09.85-1.69,5.07.3,3.43,0,5.92-.7,5.77-.2,0-1.09-.15-1.94-.25h0Z"/>
  <path id="pP4LhQopY" class="cls-1" d="M330.23,326.86c-.35-.6-1.24-3.23-1.99-5.87-.8-2.73-1.64-4.87-1.99-4.87-1.54,0-3.63,4.62-3.93,8.9q-.2,2.29-2.09,2.29h-1.94l.15-2.24c.3-4.77,1.49-7.51,4.38-10.29l2.73-2.59-.75-2.29c-.45-1.24-.8-2.39-.8-2.49,0-.25,3.98.05,4.13.3.1.1.65,1.84,1.29,3.83l1.14,3.58h3.38c3.33,0,3.38,0,3.93,1.54.3.89.55,1.64.55,1.74,0,.15-3.03,1.69-3.28,1.69-.1,0-.5-.65-.94-1.49-.75-1.49-2.73-2.14-2.73-.85,0,.6,2.04,7.31,2.69,8.85.3.65,0,.89-1.44,1.04s-1.99,0-2.49-.8h0Z"/>
  <path id="pRYhwGV7i" class="cls-1" d="M368.87,327.54c-.8-.5-1.04-3.23-.5-5.02,1.54-5.12,2.04-6.02,4.48-8.15l2.54-2.19-.85-2.39c-.45-1.29-.8-2.44-.8-2.54,0-.25,4.03.2,4.18.45.05.1.35.94.65,1.89,1.19,3.98,5.07,16.21,5.37,16.96.25.65-.05.89-1.49,1.04-.99.1-1.99-.05-2.19-.3-.25-.3-1.19-2.98-2.14-5.92-.9-2.98-1.89-5.42-2.14-5.47-.7-.05-2.64,2.93-3.23,5.07-.25.99-.5,2.83-.5,4.18s-.15,2.34-.35,2.39c-.25,0-.9.1-1.49.15-.6.05-1.29,0-1.54-.15h0Z"/>
  <path id="pnCNA2PFU" class="cls-1" d="M388.46,317.81c-.15-1.69-.3-4.72-.3-6.71v-3.68h3.98v2.88c0,1.64-.15,4.62-.3,6.71-.35,3.73-.35,3.83-1.69,3.83s-1.34-.15-1.69-3.03h0Z"/>
  <path id="pomL9MIeC" class="cls-1" d="M352.35,327.35c-.8-.1-1.39-.3-1.39-.35,0-.7,2.69-8.2,3.48-9.8.79-2.24.98-3.07-.46-3.08-.6.2-.53.1-.53-2.83v-3.53l1.84.15c1.79.15,1.84.25,1.89,1.99,0,2.19.3,2.54,2.24,2.49,1.64-.05,1.89.6.75,2.09-1.24,1.64-.94,2.39.9,2.24,2.04-.2,2.64.2,2.98,1.89.15.8.65,2.93,1.04,4.77.45,1.89.7,3.58.6,3.78-.2.25-1.59.3-3.33.1-.2-.05-.5-.8-.65-1.74-.2-.94-.65-2.83-1.09-4.23-1.24-4.28-3.28-3.13-4.72,2.73-.6,2.44-.92,3.78-1.51,3.68-.15-.05-1.27-.25-2.02-.35h0Z"/>
</svg>