<svg xmlns="http://www.w3.org/2000/svg" viewBox="0 0 32 32">
  <defs>
    <linearGradient id="gold-grad" x1="0%" y1="0%" x2="100%" y2="100%">
      <stop offset="0%" stop-color="#F5A623" />
      <stop offset="100%" stop-color="#C7851A" />
    </linearGradient>
    <linearGradient id="green-grad" x1="0%" y1="0%" x2="100%" y2="100%">
      <stop offset="0%" stop-color="#10B981" />
      <stop offset="100%" stop-color="#059669" />
    </linearGradient>
  </defs>
  <rect width="32" height="32" rx="8" fill="#0B0F19" />
  <!-- Shield outline -->
  <path fill="url(#gold-grad)" d="M16 6L8 9v6c0 4.8 3.4 9.3 8 10.5 4.6-1.2 8-5.7 8-10.5V9l-8-3zm0 15c-3.1-0.9-5.4-4-5.4-7.1V10.3l5.4-2 5.4 2v3.6c0 3.1-2.3 6.2-5.4 7.1z" />
  <!-- Checkmark -->
  <path fill="url(#green-grad)" d="M14.5 16.5l-2.5-2.5-1 1 3.5 3.5 6.5-6.5-1-1z" />
</svg>
