<?xml version="1.0" encoding="UTF-8"?>
<svg id="Layer_1" data-name="Layer 1" xmlns="http://www.w3.org/2000/svg" viewBox="0 0 1000 458.33">
  <defs>
    <style>
      .cls-1 {
        fill: #1e8ccc;
      }

      .cls-2 {
        fill: #f8be1a;
      }

      .cls-3 {
        fill: #0273ba;
      }
    </style>
  </defs>
  <path class="cls-2" d="M925.79,297.38c-1.02.21-2.01.45-3.01.76-1.07.32-2.07.63-3.03,1.03-.94.37-1.91.82-2.85,1.29-1.02.5-1.9,1-2.79,1.52-.89.55-1.78,1.12-2.64,1.76-.89.66-1.72,1.31-2.56,1.99-.74.66-1.54,1.39-2.3,2.15-.76.76-1.49,1.55-2.17,2.36-.65.76-1.3,1.6-1.9,2.44-.65.91-1.23,1.79-1.75,2.68-.58.94-1.07,1.86-1.51,2.81-.5.99-.91,1.96-1.31,2.96-.34.94-.67,1.97-.96,2.99-.29.99-.53,2.07-.7,3.12l-6.76,38.81c-.73,4.2-4.73,7.6-8.91,7.61-4.21,0-7.01-3.4-6.26-7.59l11.59-66.57c.75-4.19,4.74-7.6,8.93-7.6,2.4,0,4.26,1.19,5.34,2.95,1.23-1.03,2.4-1.97,3.63-2.84,1.28-.92,2.59-1.81,3.94-2.63,1.36-.84,2.77-1.6,4.21-2.31,1.33-.66,2.77-1.31,4.23-1.89,1.48-.61,2.97-1.11,4.52-1.55,1.41-.45,2.92-.82,4.46-1.14,4.26-.9,7.82,1.75,7.99,5.86.16,4.12-3.18,8.15-7.44,9.03M873.09,282.57c-1.54.31-3.06.69-4.49,1.14-1.52.45-3.03.94-4.5,1.55-1.46.58-2.89,1.2-4.23,1.89-1.43.71-2.82,1.47-4.23,2.31-1.33.82-2.67,1.71-3.92,2.63-1.22.87-2.43,1.81-3.62,2.84-1.1-1.76-2.93-2.96-5.37-2.96-4.18.01-8.17,3.42-8.9,7.61l-11.62,66.57c-.72,4.19,2.08,7.59,6.26,7.59,4.18,0,8.17-3.41,8.93-7.61l6.76-38.81c.18-1.05.42-2.09.71-3.12.26-1,.59-2.02.96-3.02.39-.99.81-1.93,1.28-2.93.47-.94.94-1.86,1.51-2.8.53-.89,1.1-1.76,1.72-2.63.63-.86,1.28-1.7,1.93-2.49.7-.82,1.41-1.6,2.19-2.36.75-.76,1.54-1.5,2.29-2.15.81-.68,1.64-1.34,2.53-1.99.86-.63,1.75-1.21,2.64-1.74.89-.55,1.8-1.05,2.8-1.55.94-.47,1.91-.89,2.9-1.28.94-.39,1.91-.71,2.97-1.03.99-.32,2.01-.55,3.03-.76,4.26-.87,7.57-4.91,7.41-9.02-.14-4.11-3.72-6.75-7.96-5.86M809.53,292.02c-4.18,0-8.18,3.41-8.9,7.61l-11.62,66.57c-.72,4.2,2.08,7.6,6.26,7.59,4.18,0,8.18-3.41,8.9-7.61l11.62-66.57c.72-4.19-2.08-7.59-6.26-7.59M814.52,263.47c-4.18,0-8.18,3.42-8.9,7.61l-.83,4.77c-.75,4.2,2.05,7.6,6.26,7.59,4.18,0,8.18-3.41,8.9-7.61l.83-4.77c.72-4.2-2.08-7.59-6.26-7.59M777.62,328.19c-4.38,25.16-28.37,45.66-53.47,45.69-15.27.02-27.38-7.59-33.64-19.16-.31.05-.66.19-.99.19-4.18,0-6.98-3.4-6.26-7.6l13.27-76.07c.72-4.2,4.73-7.6,8.93-7.61,4.18,0,6.99,3.4,6.26,7.59l-4.07,23.3c9.34-7.32,20.71-11.9,32.42-11.91,25.09-.04,41.96,20.4,37.55,45.58M762.46,328.21c2.93-16.8-8.3-30.43-25.03-30.41-16.76.02-32.73,13.7-35.66,30.49-2.93,16.78,8.3,30.38,25.03,30.36,16.73-.02,32.73-13.68,35.66-30.45M678.05,328.31c-.72,4.19-4.72,7.6-8.93,7.6l-67.2.1c1.12,13.09,11.19,22.8,25.28,22.79h.03c2.07,0,4.16-.22,6.19-.62,2.04-.39,4.05-1,5.98-1.76,2.01-.79,3.89-1.74,5.67-2.81,3.89-2.36,8.44-1.46,10.17,2.03,1.76,3.48.01,8.2-3.88,10.57-2.69,1.63-5.54,3.04-8.49,4.2-2.92,1.19-5.95,2.08-9.01,2.69-3.06.61-6.19.92-9.3.93-25.1.03-41.96-20.41-37.55-45.59,4.39-25.15,28.38-45.66,53.47-45.69,25.12-.03,41.96,20.4,37.57,45.57M604.59,320.81l58.52-.09c-1.11-13.07-11.19-22.8-25.28-22.79-14.12.02-27.56,9.79-33.24,22.87M572.09,351.43c-.92-3.72-1.03-7.7-.31-11.82l11.91-68.22c.72-4.19-2.08-7.59-6.26-7.59-4.21,0-8.2,3.42-8.93,7.61l-11.9,68.21c-1.06,6.16-.9,12.13.49,17.76,1.34,5.45,3.78,10.32,7.21,14.48,1.23,1.49,3.04,2.22,4.97,2.22,1.96,0,4.02-.77,5.78-2.24,3.47-2.99,4.3-7.81,1.87-10.77-2.31-2.77-3.93-6.02-4.82-9.66M550.03,328.49c-.72,4.2-4.73,7.6-8.93,7.61l-67.2.09c1.12,13.1,11.2,22.8,25.29,22.79h.03c2.06,0,4.16-.22,6.19-.61,2.04-.4,4.05-1,5.99-1.76,2.01-.79,3.89-1.74,5.67-2.81,3.89-2.36,8.44-1.45,10.17,2.03,1.76,3.49.01,8.2-3.88,10.57-2.69,1.63-5.54,3.05-8.49,4.2-2.92,1.18-5.96,2.08-9.02,2.69-3.05.61-6.19.92-9.3.92-25.09.04-41.95-20.4-37.54-45.58,4.38-25.16,28.37-45.66,53.47-45.69,25.12-.03,41.95,20.41,37.57,45.56M476.56,320.99l58.53-.08c-1.12-13.07-11.19-22.81-25.28-22.79-14.12.02-27.56,9.78-33.25,22.87M449.33,359.65c-3.35-1.52-6.2-3.71-8.5-6.48-2.31-2.83-3.93-6.08-4.82-9.69-.92-3.75-1.03-7.73-.3-11.85l5.8-33.41,13.28-.02c4.18-.01,8.17-3.42,8.93-7.61.72-4.2-2.08-7.6-6.26-7.59l-13.28.02,2-11.43c.72-4.19-2.07-7.59-6.26-7.59-4.21,0-8.21,3.42-8.93,7.61l-2,11.43-13.25.02c-4.21,0-8.21,3.42-8.93,7.61-.73,4.19,2.07,7.6,6.26,7.59l13.28-.02-5.84,33.41c-1.06,6.19-.92,12.16.47,17.76,1.35,5.42,3.78,10.29,7.23,14.51,3.46,4.19,7.75,7.45,12.77,9.75.88.42,1.86.6,2.85.6,2.96,0,6.06-1.76,7.79-4.65,2.32-3.88,1.3-8.33-2.29-9.98"/>
  <path class="cls-1" d="M773.26,239.86c-2.16,1.86-4.78,2.79-7.18,2.79-1.7,0-3.27-.49-4.61-1.38l-23.62.03h-.06c-18.3.03-30.58-14.89-27.39-33.24l8.07-46.15c3.19-18.35,20.68-33.31,39-33.33l14.22-.02c2.54,0,4.91.49,7.06,1.48,2.04.91,3.82,2.25,5.26,4,3.07,3.69,2.03,9.69-2.3,13.44-2.17,1.86-4.78,2.81-7.21,2.81-2.43,0-4.67-.91-6.2-2.75l-.02-.02-14.12.05c-7.84.01-15.36,6.44-16.74,14.3l-8.04,46.15c-1.37,7.87,3.92,14.25,11.76,14.24.03,0,0,0,0,0,.03,0,0,0,0,0l25.15-.04c1.88,0,3.66.37,5.28,1.09,1.57.71,2.93,1.76,4.03,3.09,3.07,3.69,2.03,9.72-2.33,13.45M672.1,128.7c-20.91.03-40.91,17.12-44.57,38.08h-2.85c-5.59.01-11.2,2.2-15.83,6.16-4.36,3.73-5.4,9.75-2.33,13.47,1.55,1.83,3.8,2.75,6.22,2.74,2.43,0,5.02-.92,7.19-2.79.31-.26.79-.55,1.44-.55h2.85s-8.3,47.54-8.3,47.54c-.9,5.27,2.58,9.51,7.83,9.5,5.23-.01,10.22-4.26,11.15-9.53l11.59-66.54v-.03c1.84-10.48,11.84-19.04,22.29-19.05,10.46-.02,17.47,8.52,15.66,19v.02l-11.62,66.54c-.91,5.27,2.57,9.51,7.83,9.5,5.23,0,10.22-4.26,11.15-9.53l11.59-66.54v-.03c3.68-20.97-10.38-38-31.28-37.97M610.18,208.57c-.06-1.83-.29-3.58-.71-5.34-.45-1.7-1.05-3.33-1.78-4.82-.76-1.52-1.68-2.91-2.78-4.27-1.04-1.26-2.23-2.37-3.56-3.42-1.34-1.02-2.8-1.91-4.42-2.64-1.57-.71-3.27-1.28-5.05-1.64-4.94-.96-10.53,2.32-12.48,7.45-1.93,5.17.54,10.17,5.47,11.18.6.13,1.18.34,1.65.55.53.23,1.02.52,1.39.83.5.37.94.79,1.26,1.18.37.44.68.91.94,1.44.26.5.45,1.04.58,1.57.16.61.24,1.2.24,1.76.03.66-.02,1.31-.13,1.99-.13.66-.31,1.31-.51,1.92-.23.63-.55,1.23-.84,1.73-.34.58-.76,1.12-1.2,1.65-.42.53-.91,1-1.41,1.42-.5.45-1.04.81-1.59,1.15-.58.37-1.18.66-1.8.92-.58.21-1.17.39-1.91.53-1.2.26-2.48.26-3.79-.02-.6-.11-1.15-.29-1.62-.5-.55-.26-1.04-.58-1.49-.92-.45-.34-.84-.7-1.18-1.12-.37-.44-.69-.91-.94-1.44-.27-.52-.45-1.07-.58-1.57-.15-.58-.24-1.18-.24-1.78-.03-.63,0-1.28.13-1.94l4.15-23.8c3.18-18.35-9.09-33.26-27.39-33.24-5.1,0-10.12,1.27-14.82,3.37l3.91-22.35c.91-5.27-2.57-9.51-7.83-9.5-5.23,0-10.22,4.26-11.15,9.53l-16.57,95.08c-.94,5.27,2.57,9.51,7.8,9.5,5.25-.01,10.24-4.26,11.15-9.53l7.47-42.8c1.38-7.87,8.87-14.27,16.71-14.28,7.84-.01,13.11,6.37,11.73,14.24l-4.15,23.8c-.34,1.93-.46,3.85-.41,5.74.06,1.86.3,3.64.74,5.42.42,1.65,1.02,3.27,1.76,4.77.76,1.49,1.68,2.91,2.75,4.22,1.04,1.31,2.25,2.46,3.61,3.48,1.31,1.02,2.77,1.88,4.34,2.61,1.56.73,3.29,1.31,5.02,1.64,1.8.39,3.72.6,5.67.59,1.96,0,3.95-.22,5.8-.58,1.93-.4,3.87-.95,5.7-1.68,1.83-.74,3.58-1.6,5.28-2.63,1.67-1.02,3.29-2.17,4.83-3.52,1.52-1.28,2.89-2.71,4.17-4.2,1.28-1.5,2.43-3.12,3.5-4.88.99-1.68,1.88-3.46,2.59-5.35.7-1.86,1.22-3.78,1.55-5.71.37-1.96.5-3.85.44-5.79M495.66,203.39c-.45-1.7-1.05-3.32-1.79-4.82-.75-1.52-1.67-2.91-2.77-4.26-1.04-1.26-2.23-2.38-3.56-3.43-1.34-1.02-2.77-1.88-4.45-2.67-1.57-.71-3.24-1.25-5.02-1.62-4.94-.96-10.53,2.32-12.48,7.45-1.92,5.17.54,10.17,5.48,11.18.63.13,1.18.34,1.62.52.53.26,1.02.55,1.42.86.5.37.94.79,1.26,1.18.37.45.68.92.94,1.44.26.5.45,1.04.58,1.57.16.61.24,1.2.24,1.76.02.65-.03,1.31-.13,1.99-.13.66-.31,1.31-.52,1.92-.23.63-.54,1.23-.83,1.73-.34.58-.75,1.13-1.2,1.66-.42.53-.91.99-1.41,1.41-.5.45-1.04.82-1.59,1.16-.58.37-1.2.66-1.8.9-.58.23-1.18.42-1.91.55-1.2.27-2.48.27-3.79-.02-.61-.1-1.15-.29-1.62-.49-.55-.26-1.05-.58-1.49-.92-.42-.31-.84-.7-1.18-1.12-.37-.45-.68-.92-.94-1.44-.26-.53-.45-1.08-.58-1.58-.16-.58-.24-1.18-.24-1.78-.02-.63,0-1.28.13-1.93l7.47-42.83,14.04-.02c1.34.94,2.99,1.38,4.71,1.38,2.4,0,5.02-.92,7.18-2.79,4.37-3.73,5.4-9.73,2.33-13.44-1.02-1.26-2.36-2.28-4.03-3.09-1.62-.7-3.4-1.07-5.28-1.07l-15.63.02,2.49-14.26c.9-5.27-2.58-9.5-7.83-9.5-5.23.01-10.21,4.26-11.15,9.53l-2.48,14.26h-6.12c-1.88,0-3.79.38-5.85,1.17-1.78.74-3.45,1.76-4.94,3.02-4.36,3.73-5.39,9.73-2.33,13.45,2.59,3.16,7.35,3.63,11.4,1.37h4.52s-7.47,42.81-7.47,42.81c-.34,1.94-.47,3.85-.41,5.74.06,1.86.29,3.64.74,5.42.42,1.65,1.02,3.28,1.76,4.77.76,1.5,1.67,2.91,2.72,4.19,1.05,1.31,2.28,2.48,3.64,3.5,1.31,1.02,2.77,1.88,4.34,2.61,1.57.73,3.3,1.31,5.02,1.64,1.8.39,3.72.6,5.67.59,1.96,0,3.94-.21,5.8-.58,1.91-.37,3.84-.95,5.72-1.69,1.81-.73,3.58-1.6,5.25-2.63,1.67-1.02,3.29-2.18,4.83-3.52,1.51-1.28,2.9-2.7,4.18-4.2,1.28-1.49,2.43-3.12,3.5-4.87.99-1.68,1.87-3.46,2.57-5.35.7-1.86,1.22-3.77,1.56-5.71.36-1.96.49-3.85.43-5.79-.05-1.84-.29-3.6-.71-5.35"/>
  <path class="cls-3" d="M172.88,191.27l-94.83.14c-5.23,0-10.22,4.26-11.12,9.53-.93,5.24,2.57,9.48,7.83,9.48,47.05-.07,78.65,38.26,70.41,85.46-.91,5.24,2.57,9.48,7.83,9.47,5.23,0,10.21-4.25,11.15-9.5l16.57-95.06c.93-5.27-2.58-9.51-7.83-9.5M206.32,162.69l16.59-95.09c.91-5.26,5.89-9.51,11.15-9.53,5.23,0,8.74,4.24,7.83,9.5-8.25,47.17,23.36,85.51,70.44,85.45l23.7-.03c5.23-.01,8.74,4.23,7.8,9.5-.91,5.24-5.89,9.49-11.12,9.5l-118.57.17c-5.23,0-8.73-4.24-7.83-9.47M269.18,400.25c-57.53.08-96.15-46.76-86.06-104.45l16.57-95.07c.93-5.26,5.89-9.51,11.15-9.52l142.25-.2c5.25-.01,8.76,4.23,7.83,9.5-.91,5.24-5.9,9.49-11.12,9.5l-47.42.07c-47.07.06-92.06,38.51-100.3,85.7-8.23,47.04,23.17,85.28,70.01,85.45,29.2-1.46,53.83-15.33,68.37-43.01,1.33-2.55,2.48-5.14,3.46-7.79,1.1-3.22,2.11-6.5,2.71-9.89.05-.26.08-.5.13-.76,4.48-27.18-13.77-49.18-40.93-49.14-21.12.03-41.33,17.27-45.01,38.47-2.85,16.2,8.01,29.39,24.2,29.37,3.66,0,6.12,2.95,5.47,6.64-.65,3.67-4.14,6.67-7.81,6.67-23.5.03-39.26-19.12-35.14-42.65,4.95-28.55,32.15-51.77,60.62-51.81,34.64-.05,57.89,28.16,51.84,62.92-9.46,54.17-59.93,79.97-90.82,80.01"/>
</svg>